<?xml version="1.0" encoding="UTF-8" standalone="no"?><!DOCTYPE svg PUBLIC "-//W3C//DTD SVG 1.1//EN" "http://www.w3.org/Graphics/SVG/1.1/DTD/svg11.dtd"><svg width="100%" height="100%" viewBox="0 0 375 667" version="1.1" xmlns="http://www.w3.org/2000/svg" xmlns:xlink="http://www.w3.org/1999/xlink" xml:space="preserve" xmlns:serif="http://www.serif.com/" style="fill-rule:evenodd;clip-rule:evenodd;stroke-linejoin:round;stroke-miterlimit:1.41421;"><path d="M346.739,50.782c0,-13.677 -11.104,-24.782 -24.782,-24.782l-270.436,0c-13.677,0 -24.782,11.105 -24.782,24.782l0,430.436c0,13.677 11.105,24.782 24.782,24.782l270.436,0c13.678,0 24.782,-11.105 24.782,-24.782l0,-430.436Z" style="fill:none;"/><clipPath id="_clip1"><path d="M346.739,50.782c0,-13.677 -11.104,-24.782 -24.782,-24.782l-270.436,0c-13.677,0 -24.782,11.105 -24.782,24.782l0,430.436c0,13.677 11.105,24.782 24.782,24.782l270.436,0c13.678,0 24.782,-11.105 24.782,-24.782l0,-430.436Z"/></clipPath><g clip-path="url(#_clip1)"><rect x="26.739" y="26" width="320" height="50" style="fill:#82b7d1;"/><path d="M316.739,40.956c0,-2.735 -2.221,-4.956 -4.956,-4.956l-250.088,0c-2.735,0 -4.956,2.221 -4.956,4.956l0,20.088c0,2.735 2.221,4.956 4.956,4.956l250.088,0c2.735,0 4.956,-2.221 4.956,-4.956l0,-20.088Z" style="fill:#fff;"/><rect x="26.739" y="76" width="160" height="430" style="fill:#ffe5f2;"/></g><rect x="186.739" y="76" width="160" height="480" style="fill:#ff0078;"/><path d="M322.177,16.501l0.22,0.002l0.22,0.003l0.22,0.005l0.219,0.006l0.22,0.008l0.218,0.009l0.219,0.01l0.218,0.012l0.218,0.013l0.218,0.015l0.217,0.016l0.217,0.017l0.217,0.019l0.216,0.019l0.216,0.022l0.216,0.022l0.215,0.024l0.215,0.026l0.215,0.026l0.214,0.028l0.214,0.029l0.213,0.031l0.213,0.032l0.213,0.033l0.212,0.035l0.212,0.036l0.212,0.037l0.211,0.038l0.21,0.04l0.21,0.041l0.21,0.042l0.209,0.044l0.209,0.044l0.209,0.047l0.208,0.047l0.207,0.049l0.207,0.049l0.206,0.052l0.207,0.052l0.205,0.054l0.205,0.054l0.205,0.056l0.204,0.058l0.203,0.058l0.203,0.06l0.203,0.061l0.202,0.062l0.201,0.064l0.201,0.064l0.2,0.066l0.2,0.067l0.199,0.068l0.199,0.07l0.198,0.07l0.198,0.072l0.197,0.073l0.196,0.074l0.196,0.075l0.195,0.076l0.195,0.078l0.194,0.078l0.193,0.08l0.193,0.081l0.192,0.082l0.192,0.083l0.191,0.085l0.191,0.085l0.189,0.087l0.189,0.087l0.189,0.089l0.188,0.09l0.187,0.091l0.186,0.092l0.187,0.093l0.185,0.094l0.184,0.096l0.184,0.096l0.183,0.098l0.183,0.098l0.182,0.1l0.181,0.1l0.181,0.102l0.18,0.103l0.179,0.103l0.178,0.105l0.178,0.106l0.177,0.107l0.176,0.108l0.175,0.109l0.176,0.11l0.174,0.111l0.173,0.112l0.173,0.113l0.172,0.114l0.171,0.115l0.17,0.116l0.17,0.116l0.17,0.119l0.168,0.119l0.167,0.12l0.167,0.12l0.166,0.122l0.165,0.123l0.165,0.124l0.163,0.124l0.163,0.126l0.162,0.127l0.162,0.128l0.16,0.128l0.159,0.129l0.159,0.13l0.158,0.131l0.158,0.133l0.157,0.133l0.155,0.134l0.154,0.135l0.154,0.136l0.154,0.137l0.152,0.137l0.152,0.139l0.15,0.139l0.15,0.141l0.15,0.141l0.148,0.142l0.147,0.143l0.146,0.143l0.145,0.145l0.145,0.146l0.145,0.147l0.142,0.147l0.142,0.148l0.141,0.149l0.141,0.15l0.139,0.151l0.139,0.151l0.137,0.152l0.137,0.153l0.136,0.155l0.135,0.155l0.134,0.155l0.133,0.157l0.132,0.156l0.131,0.158l0.131,0.16l0.13,0.16l0.128,0.16l0.128,0.161l0.126,0.162l0.125,0.163l0.125,0.163l0.124,0.165l0.123,0.165l0.122,0.167l0.121,0.166l0.12,0.167l0.118,0.168l0.118,0.169l0.117,0.17l0.117,0.171l0.114,0.171l0.114,0.172l0.113,0.173l0.112,0.174l0.111,0.173l0.11,0.175l0.109,0.176l0.108,0.176l0.107,0.177l0.106,0.178l0.105,0.178l0.103,0.18l0.103,0.18l0.102,0.18l0.1,0.181l0.1,0.182l0.099,0.183l0.097,0.183l0.096,0.183l0.096,0.185l0.094,0.185l0.093,0.186l0.092,0.187l0.091,0.187l0.09,0.189l0.089,0.188l0.087,0.189l0.087,0.19l0.085,0.189l0.085,0.192l0.083,0.192l0.082,0.192l0.081,0.192l0.08,0.195l0.078,0.193l0.078,0.195l0.076,0.195l0.075,0.196l0.074,0.196l0.073,0.197l0.072,0.198l0.071,0.198l0.069,0.199l0.068,0.199l0.067,0.2l0.066,0.2l0.064,0.201l0.064,0.202l0.062,0.202l0.061,0.201l0.06,0.204l0.058,0.203l0.058,0.205l0.056,0.204l0.054,0.205l0.054,0.206l0.053,0.206l0.051,0.206l0.049,0.206l0.049,0.209l0.048,0.208l0.046,0.208l0.044,0.208l0.044,0.21l0.042,0.21l0.041,0.211l0.04,0.21l0.038,0.21l0.038,0.212l0.035,0.212l0.035,0.212l0.033,0.212l0.032,0.213l0.031,0.215l0.029,0.213l0.028,0.214l0.027,0.215l0.025,0.216l0.024,0.214l0.022,0.215l0.022,0.218l0.02,0.215l0.018,0.216l0.017,0.218l0.016,0.218l0.015,0.217l0.013,0.218l0.012,0.218l0.01,0.219l0.009,0.219l0.008,0.218l0.006,0.22l0.005,0.22l0.003,0.22l0.002,0.22l0.001,0.206l0,430.464l-0.001,0.206l-0.002,0.22l-0.003,0.22l-0.005,0.22l-0.006,0.22l-0.008,0.218l-0.009,0.219l-0.01,0.219l-0.012,0.218l-0.013,0.218l-0.015,0.217l-0.016,0.218l-0.017,0.218l-0.018,0.215l-0.02,0.216l-0.022,0.218l-0.022,0.215l-0.024,0.214l-0.026,0.216l-0.026,0.215l-0.028,0.214l-0.029,0.213l-0.031,0.215l-0.032,0.213l-0.033,0.212l-0.035,0.212l-0.035,0.212l-0.038,0.212l-0.038,0.21l-0.04,0.21l-0.041,0.211l-0.042,0.21l-0.044,0.21l-0.044,0.208l-0.046,0.208l-0.048,0.208l-0.049,0.208l-0.049,0.206l-0.051,0.207l-0.053,0.206l-0.053,0.206l-0.055,0.205l-0.056,0.205l-0.058,0.203l-0.058,0.204l-0.06,0.204l-0.061,0.201l-0.062,0.202l-0.064,0.202l-0.064,0.202l-0.066,0.199l-0.067,0.2l-0.068,0.199l-0.069,0.199l-0.071,0.198l-0.072,0.198l-0.073,0.197l-0.074,0.196l-0.075,0.196l-0.076,0.195l-0.078,0.195l-0.078,0.193l-0.08,0.195l-0.081,0.192l-0.082,0.192l-0.083,0.192l-0.085,0.191l-0.085,0.19l-0.087,0.19l-0.087,0.189l-0.089,0.189l-0.09,0.188l-0.091,0.187l-0.092,0.187l-0.093,0.186l-0.094,0.184l-0.096,0.186l-0.096,0.183l-0.097,0.183l-0.099,0.183l-0.1,0.182l-0.1,0.181l-0.102,0.181l-0.103,0.179l-0.103,0.18l-0.106,0.179l-0.105,0.177l-0.107,0.177l-0.108,0.176l-0.109,0.176l-0.11,0.174l-0.11,0.174l-0.113,0.175l-0.113,0.172l-0.113,0.171l-0.115,0.172l-0.117,0.171l-0.117,0.17l-0.118,0.169l-0.118,0.168l-0.12,0.166l-0.121,0.168l-0.122,0.166l-0.123,0.165l-0.124,0.165l-0.125,0.164l-0.125,0.161l-0.126,0.162l-0.128,0.162l-0.128,0.16l-0.13,0.16l-0.131,0.16l-0.131,0.158l-0.132,0.157l-0.133,0.156l-0.134,0.156l-0.134,0.154l-0.137,0.154l-0.137,0.154l-0.137,0.152l-0.139,0.151l-0.139,0.151l-0.141,0.15l-0.141,0.149l-0.142,0.148l-0.142,0.147l-0.145,0.147l-0.145,0.146l-0.145,0.145l-0.146,0.143l-0.147,0.142l-0.149,0.143l-0.149,0.142l-0.149,0.139l-0.152,0.14l-0.151,0.139l-0.152,0.137l-0.154,0.137l-0.153,0.136l-0.155,0.135l-0.155,0.134l-0.157,0.133l-0.158,0.133l-0.158,0.131l-0.158,0.13l-0.16,0.129l-0.161,0.129l-0.161,0.127l-0.162,0.127l-0.163,0.126l-0.163,0.124l-0.165,0.124l-0.165,0.123l-0.166,0.122l-0.167,0.121l-0.167,0.119l-0.169,0.119l-0.169,0.119l-0.17,0.117l-0.17,0.115l-0.17,0.115l-0.173,0.115l-0.173,0.112l-0.172,0.112l-0.175,0.111l-0.175,0.11l-0.175,0.109l-0.177,0.108l-0.177,0.107l-0.178,0.106l-0.178,0.104l-0.18,0.104l-0.179,0.103l-0.181,0.102l-0.181,0.1l-0.181,0.099l-0.183,0.099l-0.184,0.098l-0.184,0.096l-0.184,0.095l-0.185,0.095l-0.187,0.093l-0.186,0.092l-0.188,0.091l-0.187,0.09l-0.189,0.089l-0.189,0.087l-0.189,0.087l-0.191,0.085l-0.191,0.085l-0.192,0.083l-0.192,0.082l-0.192,0.081l-0.194,0.079l-0.194,0.079l-0.194,0.078l-0.196,0.076l-0.196,0.075l-0.196,0.074l-0.198,0.073l-0.197,0.072l-0.197,0.07l-0.199,0.07l-0.2,0.068l-0.2,0.067l-0.2,0.066l-0.202,0.065l-0.2,0.063l-0.202,0.062l-0.203,0.061l-0.202,0.06l-0.204,0.058l-0.204,0.058l-0.205,0.056l-0.205,0.055l-0.206,0.053l-0.205,0.052l-0.206,0.051l-0.208,0.05l-0.207,0.049l-0.208,0.047l-0.209,0.047l-0.209,0.044l-0.209,0.044l-0.209,0.042l-0.211,0.041l-0.21,0.04l-0.211,0.038l-0.212,0.037l-0.212,0.036l-0.212,0.035l-0.213,0.033l-0.213,0.032l-0.213,0.03l-0.213,0.03l-0.216,0.028l-0.215,0.026l-0.214,0.026l-0.215,0.024l-0.216,0.022l-0.216,0.022l-0.215,0.019l-0.218,0.019l-0.217,0.017l-0.217,0.016l-0.218,0.015l-0.218,0.013l-0.218,0.012l-0.218,0.01l-0.22,0.009l-0.218,0.008l-0.22,0.006l-0.22,0.005l-0.22,0.003l-0.22,0.002l-0.205,0.001l-270.466,0l-0.204,-0.001l-0.22,-0.002l-0.221,-0.003l-0.22,-0.005l-0.219,-0.006l-0.219,-0.008l-0.22,-0.009l-0.218,-0.01l-0.217,-0.012l-0.219,-0.013l-0.218,-0.015l-0.217,-0.016l-0.217,-0.017l-0.217,-0.019l-0.216,-0.019l-0.216,-0.022l-0.216,-0.022l-0.215,-0.024l-0.214,-0.026l-0.215,-0.026l-0.216,-0.028l-0.213,-0.03l-0.213,-0.03l-0.213,-0.032l-0.213,-0.033l-0.212,-0.035l-0.212,-0.036l-0.211,-0.037l-0.211,-0.038l-0.211,-0.04l-0.211,-0.041l-0.209,-0.042l-0.208,-0.044l-0.209,-0.044l-0.21,-0.047l-0.207,-0.047l-0.208,-0.048l-0.207,-0.051l-0.207,-0.051l-0.205,-0.052l-0.205,-0.053l-0.206,-0.055l-0.204,-0.056l-0.204,-0.058l-0.204,-0.058l-0.203,-0.06l-0.203,-0.061l-0.202,-0.062l-0.2,-0.064l-0.201,-0.064l-0.201,-0.066l-0.2,-0.067l-0.2,-0.068l-0.198,-0.07l-0.198,-0.07l-0.197,-0.072l-0.198,-0.073l-0.196,-0.074l-0.196,-0.075l-0.195,-0.076l-0.195,-0.078l-0.194,-0.079l-0.193,-0.079l-0.193,-0.081l-0.192,-0.082l-0.192,-0.083l-0.191,-0.085l-0.191,-0.085l-0.189,-0.087l-0.189,-0.087l-0.189,-0.089l-0.187,-0.09l-0.188,-0.091l-0.186,-0.092l-0.187,-0.093l-0.185,-0.095l-0.184,-0.095l-0.184,-0.096l-0.184,-0.098l-0.182,-0.098l-0.182,-0.1l-0.181,-0.1l-0.18,-0.102l-0.18,-0.103l-0.18,-0.104l-0.178,-0.104l-0.178,-0.106l-0.177,-0.107l-0.176,-0.108l-0.176,-0.109l-0.174,-0.11l-0.175,-0.111l-0.173,-0.112l-0.172,-0.113l-0.173,-0.114l-0.171,-0.115l-0.17,-0.116l-0.17,-0.117l-0.169,-0.118l-0.169,-0.119l-0.167,-0.119l-0.167,-0.121l-0.166,-0.122l-0.165,-0.123l-0.164,-0.124l-0.164,-0.124l-0.163,-0.126l-0.162,-0.127l-0.161,-0.127l-0.16,-0.129l-0.16,-0.129l-0.159,-0.13l-0.158,-0.132l-0.157,-0.132l-0.157,-0.133l-0.156,-0.134l-0.155,-0.135l-0.153,-0.136l-0.154,-0.137l-0.152,-0.137l-0.151,-0.139l-0.151,-0.14l-0.15,-0.139l-0.149,-0.142l-0.148,-0.142l-0.148,-0.143l-0.146,-0.144l-0.145,-0.144l-0.145,-0.146l-0.144,-0.147l-0.143,-0.147l-0.142,-0.148l-0.141,-0.149l-0.141,-0.15l-0.139,-0.151l-0.138,-0.151l-0.138,-0.152l-0.137,-0.154l-0.136,-0.154l-0.135,-0.154l-0.134,-0.156l-0.133,-0.156l-0.132,-0.158l-0.131,-0.158l-0.131,-0.159l-0.129,-0.16l-0.129,-0.16l-0.127,-0.161l-0.127,-0.162l-0.125,-0.163l-0.125,-0.164l-0.124,-0.164l-0.123,-0.165l-0.121,-0.166l-0.122,-0.167l-0.119,-0.168l-0.119,-0.168l-0.118,-0.168l-0.117,-0.17l-0.116,-0.171l-0.115,-0.171l-0.114,-0.172l-0.113,-0.172l-0.112,-0.174l-0.111,-0.175l-0.11,-0.174l-0.109,-0.176l-0.108,-0.176l-0.107,-0.177l-0.105,-0.178l-0.105,-0.178l-0.104,-0.179l-0.103,-0.18l-0.101,-0.181l-0.101,-0.181l-0.1,-0.182l-0.098,-0.183l-0.098,-0.183l-0.096,-0.184l-0.095,-0.184l-0.095,-0.186l-0.093,-0.185l-0.092,-0.187l-0.091,-0.187l-0.09,-0.188l-0.088,-0.189l-0.088,-0.189l-0.087,-0.189l-0.085,-0.191l-0.084,-0.191l-0.084,-0.191l-0.082,-0.193l-0.081,-0.193l-0.079,-0.193l-0.079,-0.194l-0.078,-0.195l-0.076,-0.195l-0.075,-0.196l-0.074,-0.197l-0.073,-0.196l-0.072,-0.198l-0.07,-0.198l-0.07,-0.199l-0.068,-0.199l-0.067,-0.2l-0.066,-0.2l-0.064,-0.201l-0.064,-0.201l-0.062,-0.202l-0.061,-0.203l-0.06,-0.203l-0.058,-0.204l-0.057,-0.203l-0.056,-0.205l-0.055,-0.205l-0.054,-0.206l-0.052,-0.206l-0.051,-0.206l-0.05,-0.207l-0.049,-0.208l-0.047,-0.207l-0.046,-0.209l-0.045,-0.209l-0.044,-0.209l-0.042,-0.21l-0.041,-0.21l-0.04,-0.211l-0.038,-0.211l-0.037,-0.211l-0.036,-0.212l-0.035,-0.212l-0.033,-0.213l-0.032,-0.213l-0.03,-0.213l-0.03,-0.214l-0.028,-0.214l-0.026,-0.215l-0.026,-0.215l-0.024,-0.215l-0.022,-0.216l-0.021,-0.216l-0.02,-0.216l-0.019,-0.217l-0.017,-0.217l-0.016,-0.217l-0.015,-0.218l-0.013,-0.218l-0.011,-0.218l-0.011,-0.219l-0.009,-0.219l-0.008,-0.219l-0.006,-0.219l-0.005,-0.22l-0.003,-0.22l-0.002,-0.22l-0.001,-0.205l0,-430.466l0.001,-0.205l0.002,-0.22l0.003,-0.22l0.005,-0.22l0.006,-0.219l0.008,-0.219l0.009,-0.219l0.011,-0.219l0.011,-0.218l0.013,-0.218l0.015,-0.218l0.016,-0.217l0.017,-0.217l0.019,-0.217l0.02,-0.216l0.021,-0.216l0.022,-0.216l0.024,-0.215l0.026,-0.215l0.026,-0.215l0.028,-0.214l0.03,-0.214l0.03,-0.213l0.032,-0.213l0.033,-0.213l0.035,-0.212l0.036,-0.212l0.037,-0.211l0.038,-0.212l0.04,-0.21l0.041,-0.21l0.042,-0.21l0.044,-0.209l0.045,-0.209l0.046,-0.209l0.047,-0.207l0.049,-0.208l0.05,-0.207l0.051,-0.206l0.052,-0.206l0.054,-0.206l0.055,-0.205l0.056,-0.205l0.057,-0.204l0.058,-0.203l0.06,-0.203l0.061,-0.203l0.062,-0.202l0.064,-0.201l0.064,-0.201l0.066,-0.2l0.067,-0.2l0.068,-0.199l0.07,-0.199l0.07,-0.198l0.072,-0.198l0.073,-0.197l0.074,-0.196l0.075,-0.196l0.076,-0.195l0.078,-0.195l0.079,-0.194l0.079,-0.193l0.081,-0.193l0.082,-0.192l0.084,-0.192l0.084,-0.191l0.085,-0.19l0.087,-0.19l0.088,-0.189l0.088,-0.189l0.09,-0.188l0.091,-0.187l0.092,-0.187l0.093,-0.185l0.095,-0.186l0.095,-0.184l0.096,-0.184l0.098,-0.183l0.098,-0.183l0.1,-0.182l0.1,-0.181l0.102,-0.181l0.103,-0.18l0.104,-0.179l0.104,-0.178l0.106,-0.178l0.107,-0.177l0.108,-0.176l0.109,-0.176l0.11,-0.175l0.111,-0.174l0.112,-0.173l0.113,-0.173l0.114,-0.172l0.115,-0.171l0.116,-0.171l0.117,-0.169l0.118,-0.169l0.119,-0.169l0.12,-0.167l0.12,-0.167l0.122,-0.166l0.123,-0.165l0.124,-0.164l0.124,-0.164l0.126,-0.163l0.127,-0.162l0.127,-0.161l0.129,-0.161l0.129,-0.159l0.131,-0.159l0.131,-0.158l0.132,-0.158l0.133,-0.156l0.134,-0.156l0.135,-0.155l0.136,-0.154l0.137,-0.153l0.137,-0.152l0.139,-0.152l0.14,-0.15l0.14,-0.15l0.141,-0.149l0.142,-0.148l0.143,-0.148l0.144,-0.146l0.145,-0.146l0.145,-0.144l0.147,-0.144l0.147,-0.143l0.148,-0.142l0.149,-0.141l0.15,-0.141l0.151,-0.139l0.151,-0.139l0.152,-0.137l0.154,-0.137l0.154,-0.136l0.154,-0.135l0.156,-0.134l0.157,-0.133l0.157,-0.132l0.158,-0.132l0.159,-0.13l0.159,-0.129l0.161,-0.129l0.161,-0.127l0.162,-0.127l0.163,-0.126l0.164,-0.124l0.164,-0.124l0.165,-0.123l0.166,-0.122l0.167,-0.121l0.167,-0.119l0.169,-0.119l0.169,-0.118l0.169,-0.117l0.171,-0.116l0.171,-0.115l0.172,-0.114l0.173,-0.113l0.173,-0.112l0.174,-0.111l0.175,-0.11l0.176,-0.109l0.176,-0.108l0.177,-0.107l0.178,-0.106l0.179,-0.104l0.179,-0.104l0.179,-0.103l0.181,-0.102l0.181,-0.1l0.182,-0.1l0.183,-0.098l0.183,-0.098l0.184,-0.096l0.184,-0.096l0.186,-0.094l0.186,-0.093l0.186,-0.092l0.187,-0.091l0.188,-0.09l0.189,-0.089l0.189,-0.087l0.19,-0.087l0.19,-0.085l0.191,-0.085l0.192,-0.083l0.192,-0.082l0.193,-0.081l0.193,-0.08l0.194,-0.078l0.195,-0.078l0.195,-0.076l0.196,-0.075l0.196,-0.074l0.197,-0.073l0.198,-0.072l0.198,-0.07l0.199,-0.07l0.199,-0.068l0.2,-0.067l0.2,-0.066l0.201,-0.064l0.202,-0.064l0.202,-0.062l0.202,-0.061l0.203,-0.06l0.204,-0.058l0.204,-0.058l0.204,-0.056l0.205,-0.054l0.206,-0.054l0.206,-0.052l0.206,-0.052l0.207,-0.049l0.208,-0.049l0.208,-0.047l0.208,-0.047l0.209,-0.044l0.209,-0.044l0.21,-0.042l0.21,-0.041l0.211,-0.04l0.211,-0.038l0.211,-0.037l0.212,-0.036l0.212,-0.035l0.213,-0.033l0.213,-0.032l0.213,-0.031l0.214,-0.029l0.215,-0.028l0.214,-0.026l0.215,-0.026l0.215,-0.024l0.216,-0.022l0.216,-0.022l0.216,-0.019l0.217,-0.019l0.217,-0.017l0.217,-0.016l0.218,-0.015l0.218,-0.013l0.218,-0.012l0.219,-0.01l0.219,-0.009l0.219,-0.008l0.219,-0.006l0.22,-0.005l0.22,-0.003l0.22,-0.002l0.205,-0.001l270.466,0l0.205,0.001Zm-270.656,9.499l-0.16,0.001l-0.16,0.001l-0.159,0.003l-0.16,0.003l-0.159,0.005l-0.159,0.005l-0.159,0.007l-0.158,0.007l-0.158,0.009l-0.158,0.009l-0.158,0.011l-0.157,0.011l-0.157,0.013l-0.157,0.013l-0.157,0.015l-0.156,0.015l-0.156,0.016l-0.156,0.018l-0.155,0.018l-0.155,0.019l-0.155,0.02l-0.154,0.022l-0.155,0.022l-0.154,0.023l-0.153,0.024l-0.153,0.025l-0.153,0.026l-0.153,0.026l-0.152,0.028l-0.152,0.029l-0.152,0.029l-0.151,0.031l-0.151,0.031l-0.151,0.033l-0.15,0.033l-0.15,0.034l-0.15,0.035l-0.149,0.036l-0.149,0.037l-0.149,0.038l-0.148,0.038l-0.148,0.04l-0.148,0.04l-0.147,0.042l-0.147,0.042l-0.146,0.043l-0.146,0.044l-0.146,0.045l-0.145,0.046l-0.145,0.046l-0.144,0.048l-0.144,0.048l-0.144,0.049l-0.143,0.05l-0.143,0.051l-0.143,0.052l-0.142,0.052l-0.142,0.054l-0.141,0.054l-0.141,0.055l-0.14,0.056l-0.14,0.057l-0.14,0.057l-0.139,0.059l-0.139,0.059l-0.138,0.06l-0.138,0.061l-0.137,0.062l-0.137,0.062l-0.137,0.063l-0.136,0.064l-0.136,0.065l-0.135,0.066l-0.135,0.067l-0.134,0.067l-0.134,0.068l-0.133,0.069l-0.133,0.069l-0.132,0.071l-0.132,0.071l-0.132,0.072l-0.131,0.073l-0.13,0.073l-0.13,0.074l-0.13,0.075l-0.129,0.076l-0.128,0.077l-0.128,0.077l-0.127,0.078l-0.127,0.079l-0.127,0.079l-0.126,0.081l-0.125,0.081l-0.125,0.081l-0.125,0.083l-0.124,0.083l-0.123,0.084l-0.123,0.084l-0.122,0.086l-0.122,0.086l-0.121,0.087l-0.121,0.087l-0.12,0.088l-0.119,0.089l-0.119,0.09l-0.119,0.09l-0.118,0.091l-0.117,0.092l-0.117,0.092l-0.116,0.093l-0.116,0.094l-0.115,0.094l-0.114,0.095l-0.114,0.096l-0.113,0.096l-0.113,0.097l-0.112,0.098l-0.112,0.098l-0.111,0.1l-0.11,0.099l-0.11,0.101l-0.109,0.101l-0.108,0.101l-0.108,0.103l-0.108,0.102l-0.106,0.104l-0.106,0.104l-0.106,0.105l-0.105,0.105l-0.104,0.107l-0.103,0.106l-0.103,0.108l-0.103,0.107l-0.101,0.109l-0.101,0.109l-0.101,0.11l-0.099,0.11l-0.099,0.111l-0.099,0.112l-0.098,0.112l-0.097,0.113l-0.096,0.113l-0.096,0.114l-0.095,0.114l-0.094,0.115l-0.094,0.116l-0.093,0.116l-0.092,0.117l-0.092,0.117l-0.091,0.118l-0.09,0.119l-0.09,0.119l-0.089,0.119l-0.088,0.12l-0.087,0.121l-0.087,0.121l-0.086,0.122l-0.086,0.122l-0.084,0.123l-0.084,0.123l-0.083,0.124l-0.083,0.125l-0.081,0.125l-0.081,0.125l-0.081,0.126l-0.079,0.126l-0.079,0.127l-0.078,0.128l-0.077,0.128l-0.077,0.128l-0.076,0.129l-0.075,0.13l-0.074,0.13l-0.073,0.13l-0.073,0.131l-0.072,0.132l-0.071,0.132l-0.071,0.132l-0.069,0.133l-0.069,0.133l-0.068,0.134l-0.067,0.134l-0.067,0.135l-0.066,0.135l-0.064,0.136l-0.064,0.136l-0.064,0.136l-0.062,0.137l-0.062,0.138l-0.061,0.138l-0.06,0.138l-0.059,0.139l-0.058,0.139l-0.058,0.14l-0.057,0.14l-0.056,0.14l-0.055,0.141l-0.054,0.141l-0.053,0.142l-0.053,0.142l-0.052,0.143l-0.051,0.142l-0.05,0.144l-0.049,0.143l-0.048,0.145l-0.048,0.144l-0.046,0.145l-0.046,0.145l-0.045,0.146l-0.044,0.146l-0.043,0.146l-0.042,0.147l-0.041,0.147l-0.041,0.148l-0.039,0.148l-0.039,0.148l-0.038,0.149l-0.037,0.148l-0.036,0.15l-0.035,0.149l-0.034,0.15l-0.033,0.151l-0.033,0.15l-0.031,0.151l-0.031,0.152l-0.029,0.152l-0.029,0.152l-0.028,0.152l-0.026,0.153l-0.026,0.152l-0.025,0.154l-0.024,0.153l-0.023,0.154l-0.022,0.154l-0.021,0.155l-0.021,0.155l-0.019,0.155l-0.018,0.155l-0.017,0.156l-0.017,0.156l-0.015,0.156l-0.015,0.157l-0.013,0.157l-0.013,0.157l-0.011,0.157l-0.011,0.158l-0.009,0.158l-0.009,0.158l-0.007,0.158l-0.007,0.159l-0.005,0.159l-0.005,0.159l-0.003,0.16l-0.003,0.159l-0.001,0.16l-0.001,0.16l0,430.436l0.001,0.16l0.001,0.16l0.003,0.159l0.003,0.16l0.005,0.159l0.005,0.159l0.007,0.159l0.007,0.158l0.009,0.158l0.009,0.158l0.011,0.158l0.011,0.157l0.013,0.157l0.013,0.157l0.015,0.157l0.015,0.156l0.017,0.156l0.017,0.156l0.018,0.155l0.019,0.155l0.021,0.155l0.021,0.155l0.022,0.154l0.023,0.154l0.024,0.153l0.025,0.154l0.026,0.152l0.026,0.153l0.028,0.152l0.029,0.152l0.029,0.152l0.031,0.152l0.031,0.151l0.033,0.15l0.033,0.151l0.034,0.15l0.035,0.149l0.036,0.15l0.037,0.148l0.038,0.149l0.039,0.148l0.039,0.148l0.041,0.148l0.041,0.147l0.042,0.147l0.043,0.146l0.044,0.146l0.045,0.146l0.046,0.145l0.046,0.145l0.048,0.144l0.048,0.145l0.049,0.143l0.05,0.144l0.051,0.142l0.052,0.143l0.053,0.142l0.053,0.142l0.054,0.141l0.055,0.141l0.056,0.14l0.057,0.14l0.058,0.14l0.058,0.139l0.059,0.139l0.06,0.138l0.061,0.138l0.062,0.138l0.062,0.137l0.064,0.136l0.064,0.136l0.064,0.136l0.066,0.135l0.067,0.135l0.067,0.134l0.068,0.134l0.069,0.133l0.069,0.133l0.071,0.132l0.071,0.132l0.072,0.132l0.073,0.131l0.073,0.13l0.074,0.13l0.075,0.13l0.076,0.129l0.077,0.128l0.077,0.128l0.078,0.128l0.079,0.127l0.079,0.126l0.081,0.126l0.081,0.125l0.081,0.125l0.083,0.125l0.083,0.124l0.084,0.123l0.084,0.123l0.086,0.122l0.086,0.122l0.087,0.121l0.087,0.121l0.088,0.12l0.089,0.119l0.09,0.119l0.09,0.119l0.091,0.118l0.092,0.117l0.092,0.117l0.093,0.116l0.094,0.116l0.094,0.115l0.095,0.114l0.096,0.114l0.096,0.113l0.097,0.113l0.098,0.112l0.099,0.112l0.099,0.111l0.099,0.11l0.101,0.11l0.101,0.109l0.101,0.109l0.103,0.107l0.103,0.108l0.103,0.106l0.104,0.107l0.105,0.105l0.106,0.105l0.106,0.104l0.106,0.104l0.108,0.102l0.108,0.103l0.108,0.101l0.109,0.101l0.11,0.101l0.11,0.099l0.111,0.1l0.112,0.098l0.112,0.098l0.113,0.097l0.113,0.096l0.114,0.096l0.114,0.095l0.115,0.094l0.116,0.094l0.116,0.093l0.117,0.092l0.117,0.092l0.118,0.091l0.119,0.09l0.119,0.09l0.119,0.089l0.12,0.088l0.121,0.087l0.121,0.087l0.122,0.086l0.122,0.086l0.123,0.084l0.123,0.084l0.124,0.083l0.125,0.083l0.125,0.081l0.125,0.081l0.126,0.081l0.127,0.079l0.127,0.079l0.127,0.078l0.128,0.077l0.128,0.077l0.129,0.076l0.13,0.075l0.13,0.074l0.13,0.073l0.131,0.073l0.132,0.072l0.132,0.071l0.132,0.071l0.133,0.069l0.133,0.069l0.134,0.068l0.134,0.067l0.135,0.067l0.135,0.066l0.136,0.065l0.136,0.064l0.137,0.063l0.137,0.062l0.137,0.062l0.138,0.061l0.138,0.06l0.139,0.059l0.139,0.059l0.14,0.057l0.14,0.057l0.14,0.056l0.141,0.055l0.141,0.054l0.142,0.054l0.142,0.052l0.143,0.052l0.143,0.051l0.143,0.05l0.144,0.049l0.144,0.048l0.144,0.048l0.145,0.046l0.145,0.046l0.146,0.045l0.146,0.044l0.146,0.043l0.147,0.042l0.147,0.042l0.148,0.04l0.148,0.04l0.148,0.038l0.149,0.038l0.149,0.037l0.149,0.036l0.15,0.035l0.15,0.034l0.15,0.033l0.151,0.033l0.151,0.031l0.151,0.031l0.152,0.029l0.152,0.029l0.152,0.028l0.153,0.026l0.153,0.026l0.153,0.025l0.153,0.024l0.154,0.023l0.155,0.022l0.154,0.022l0.155,0.02l0.155,0.019l0.155,0.018l0.156,0.018l0.156,0.016l0.156,0.015l0.157,0.015l0.157,0.013l0.157,0.013l0.157,0.011l0.158,0.011l0.158,0.009l0.158,0.009l0.158,0.007l0.159,0.007l0.159,0.005l0.159,0.005l0.16,0.003l0.159,0.003l0.16,0.001l0.16,0.001l270.436,0l0.16,-0.001l0.16,-0.001l0.16,-0.003l0.159,-0.003l0.159,-0.005l0.159,-0.005l0.159,-0.007l0.158,-0.007l0.158,-0.009l0.158,-0.009l0.158,-0.011l0.157,-0.011l0.157,-0.013l0.157,-0.013l0.157,-0.015l0.156,-0.015l0.156,-0.016l0.156,-0.018l0.155,-0.018l0.155,-0.019l0.155,-0.02l0.155,-0.022l0.154,-0.022l0.154,-0.023l0.153,-0.024l0.154,-0.025l0.153,-0.026l0.152,-0.026l0.153,-0.028l0.152,-0.029l0.151,-0.029l0.152,-0.031l0.151,-0.031l0.15,-0.033l0.151,-0.033l0.15,-0.034l0.149,-0.035l0.15,-0.036l0.149,-0.037l0.148,-0.038l0.148,-0.038l0.148,-0.04l0.148,-0.04l0.147,-0.042l0.147,-0.042l0.146,-0.043l0.146,-0.044l0.146,-0.045l0.145,-0.046l0.145,-0.046l0.145,-0.048l0.144,-0.048l0.143,-0.049l0.144,-0.05l0.143,-0.051l0.142,-0.052l0.142,-0.052l0.142,-0.054l0.141,-0.054l0.141,-0.055l0.141,-0.056l0.14,-0.057l0.139,-0.057l0.139,-0.059l0.139,-0.059l0.138,-0.06l0.138,-0.061l0.138,-0.062l0.137,-0.062l0.136,-0.063l0.136,-0.064l0.136,-0.065l0.135,-0.066l0.135,-0.067l0.134,-0.067l0.134,-0.068l0.133,-0.069l0.133,-0.069l0.133,-0.071l0.131,-0.071l0.132,-0.072l0.131,-0.073l0.13,-0.073l0.13,-0.074l0.13,-0.075l0.129,-0.076l0.128,-0.077l0.128,-0.077l0.128,-0.078l0.127,-0.079l0.126,-0.079l0.126,-0.081l0.126,-0.081l0.125,-0.081l0.124,-0.083l0.124,-0.083l0.123,-0.084l0.123,-0.084l0.122,-0.086l0.122,-0.086l0.121,-0.087l0.121,-0.087l0.12,-0.088l0.12,-0.089l0.119,-0.09l0.118,-0.09l0.118,-0.091l0.117,-0.092l0.117,-0.092l0.116,-0.093l0.116,-0.094l0.115,-0.094l0.114,-0.095l0.114,-0.096l0.114,-0.096l0.112,-0.097l0.112,-0.098l0.112,-0.098l0.111,-0.1l0.11,-0.099l0.11,-0.101l0.109,-0.101l0.109,-0.101l0.108,-0.103l0.107,-0.102l0.107,-0.104l0.106,-0.104l0.105,-0.105l0.105,-0.105l0.104,-0.107l0.104,-0.106l0.103,-0.108l0.102,-0.107l0.102,-0.109l0.101,-0.109l0.1,-0.11l0.1,-0.11l0.099,-0.111l0.098,-0.112l0.098,-0.112l0.097,-0.113l0.096,-0.113l0.096,-0.114l0.095,-0.114l0.094,-0.115l0.094,-0.116l0.093,-0.116l0.093,-0.117l0.091,-0.117l0.091,-0.118l0.09,-0.119l0.09,-0.119l0.089,-0.119l0.088,-0.12l0.088,-0.121l0.086,-0.121l0.086,-0.122l0.086,-0.122l0.084,-0.123l0.084,-0.123l0.083,-0.124l0.083,-0.125l0.082,-0.125l0.081,-0.125l0.08,-0.126l0.079,-0.126l0.079,-0.127l0.078,-0.128l0.077,-0.128l0.077,-0.128l0.076,-0.129l0.075,-0.13l0.074,-0.13l0.073,-0.13l0.073,-0.131l0.072,-0.132l0.071,-0.132l0.071,-0.132l0.069,-0.133l0.069,-0.133l0.068,-0.134l0.068,-0.134l0.066,-0.135l0.066,-0.135l0.065,-0.136l0.064,-0.136l0.063,-0.136l0.063,-0.137l0.061,-0.138l0.061,-0.138l0.06,-0.138l0.059,-0.139l0.059,-0.139l0.057,-0.14l0.057,-0.14l0.056,-0.14l0.055,-0.141l0.054,-0.141l0.054,-0.142l0.052,-0.142l0.052,-0.143l0.051,-0.142l0.05,-0.144l0.049,-0.143l0.048,-0.145l0.048,-0.144l0.046,-0.145l0.046,-0.145l0.045,-0.146l0.044,-0.146l0.043,-0.146l0.042,-0.147l0.042,-0.147l0.04,-0.148l0.04,-0.148l0.038,-0.148l0.038,-0.149l0.037,-0.148l0.036,-0.15l0.035,-0.149l0.034,-0.15l0.033,-0.151l0.033,-0.15l0.031,-0.151l0.031,-0.152l0.029,-0.152l0.029,-0.152l0.028,-0.152l0.027,-0.153l0.025,-0.152l0.025,-0.154l0.024,-0.153l0.023,-0.154l0.023,-0.154l0.021,-0.155l0.02,-0.155l0.019,-0.155l0.018,-0.155l0.018,-0.156l0.016,-0.156l0.015,-0.156l0.015,-0.157l0.013,-0.157l0.013,-0.157l0.011,-0.157l0.011,-0.158l0.009,-0.158l0.009,-0.158l0.007,-0.158l0.007,-0.159l0.005,-0.159l0.005,-0.159l0.004,-0.16l0.002,-0.159l0.002,-0.16l0,-0.16l0,-430.436l0,-0.16l-0.002,-0.16l-0.002,-0.159l-0.004,-0.16l-0.005,-0.159l-0.005,-0.159l-0.007,-0.159l-0.007,-0.158l-0.009,-0.158l-0.009,-0.158l-0.011,-0.158l-0.011,-0.157l-0.013,-0.157l-0.013,-0.157l-0.015,-0.157l-0.015,-0.156l-0.016,-0.156l-0.018,-0.156l-0.018,-0.155l-0.019,-0.155l-0.02,-0.155l-0.021,-0.155l-0.023,-0.154l-0.023,-0.154l-0.024,-0.153l-0.025,-0.154l-0.025,-0.152l-0.027,-0.153l-0.028,-0.152l-0.029,-0.152l-0.029,-0.152l-0.031,-0.152l-0.031,-0.151l-0.033,-0.15l-0.033,-0.151l-0.034,-0.15l-0.035,-0.149l-0.036,-0.15l-0.037,-0.148l-0.038,-0.149l-0.038,-0.148l-0.04,-0.148l-0.04,-0.148l-0.042,-0.147l-0.042,-0.147l-0.043,-0.146l-0.044,-0.146l-0.045,-0.146l-0.046,-0.145l-0.046,-0.145l-0.048,-0.144l-0.048,-0.145l-0.049,-0.143l-0.05,-0.144l-0.051,-0.142l-0.052,-0.143l-0.052,-0.142l-0.054,-0.142l-0.054,-0.141l-0.055,-0.141l-0.056,-0.14l-0.057,-0.14l-0.057,-0.14l-0.059,-0.139l-0.059,-0.139l-0.06,-0.138l-0.061,-0.138l-0.061,-0.138l-0.063,-0.137l-0.063,-0.136l-0.064,-0.136l-0.065,-0.136l-0.066,-0.135l-0.066,-0.135l-0.068,-0.134l-0.068,-0.134l-0.069,-0.133l-0.069,-0.133l-0.071,-0.132l-0.071,-0.132l-0.072,-0.132l-0.073,-0.131l-0.073,-0.13l-0.074,-0.13l-0.075,-0.13l-0.076,-0.129l-0.077,-0.128l-0.077,-0.128l-0.078,-0.128l-0.079,-0.127l-0.079,-0.126l-0.08,-0.126l-0.081,-0.125l-0.082,-0.125l-0.083,-0.125l-0.083,-0.124l-0.084,-0.123l-0.084,-0.123l-0.086,-0.122l-0.086,-0.122l-0.086,-0.121l-0.088,-0.121l-0.088,-0.12l-0.089,-0.119l-0.09,-0.119l-0.09,-0.119l-0.091,-0.118l-0.091,-0.117l-0.093,-0.117l-0.093,-0.116l-0.094,-0.116l-0.094,-0.115l-0.095,-0.114l-0.096,-0.114l-0.096,-0.113l-0.097,-0.113l-0.098,-0.112l-0.098,-0.112l-0.099,-0.111l-0.1,-0.11l-0.1,-0.11l-0.101,-0.109l-0.102,-0.109l-0.102,-0.107l-0.103,-0.108l-0.104,-0.106l-0.104,-0.107l-0.105,-0.105l-0.105,-0.105l-0.106,-0.104l-0.107,-0.104l-0.107,-0.102l-0.108,-0.103l-0.109,-0.101l-0.109,-0.101l-0.11,-0.101l-0.11,-0.099l-0.111,-0.1l-0.112,-0.098l-0.112,-0.098l-0.112,-0.097l-0.114,-0.096l-0.114,-0.096l-0.114,-0.095l-0.115,-0.094l-0.116,-0.094l-0.116,-0.093l-0.117,-0.092l-0.117,-0.092l-0.118,-0.091l-0.118,-0.09l-0.119,-0.09l-0.12,-0.089l-0.12,-0.088l-0.121,-0.087l-0.121,-0.087l-0.122,-0.086l-0.122,-0.086l-0.123,-0.084l-0.123,-0.084l-0.124,-0.083l-0.124,-0.083l-0.125,-0.081l-0.126,-0.081l-0.126,-0.081l-0.126,-0.079l-0.127,-0.079l-0.128,-0.078l-0.128,-0.077l-0.128,-0.077l-0.129,-0.076l-0.13,-0.075l-0.13,-0.074l-0.13,-0.073l-0.131,-0.073l-0.132,-0.072l-0.131,-0.071l-0.133,-0.071l-0.133,-0.069l-0.133,-0.069l-0.134,-0.068l-0.134,-0.067l-0.135,-0.067l-0.135,-0.066l-0.136,-0.065l-0.136,-0.064l-0.136,-0.063l-0.137,-0.062l-0.138,-0.062l-0.138,-0.061l-0.138,-0.06l-0.139,-0.059l-0.139,-0.059l-0.139,-0.057l-0.14,-0.057l-0.141,-0.056l-0.141,-0.055l-0.141,-0.054l-0.142,-0.054l-0.142,-0.052l-0.142,-0.052l-0.143,-0.051l-0.144,-0.05l-0.143,-0.049l-0.144,-0.048l-0.145,-0.048l-0.145,-0.046l-0.145,-0.046l-0.146,-0.045l-0.146,-0.044l-0.146,-0.043l-0.147,-0.042l-0.147,-0.042l-0.148,-0.04l-0.148,-0.04l-0.148,-0.038l-0.148,-0.038l-0.149,-0.037l-0.15,-0.036l-0.149,-0.035l-0.15,-0.034l-0.151,-0.033l-0.15,-0.033l-0.151,-0.031l-0.152,-0.031l-0.151,-0.029l-0.152,-0.029l-0.153,-0.028l-0.152,-0.026l-0.153,-0.026l-0.154,-0.025l-0.153,-0.024l-0.154,-0.023l-0.154,-0.022l-0.155,-0.022l-0.155,-0.02l-0.155,-0.019l-0.155,-0.018l-0.156,-0.018l-0.156,-0.016l-0.156,-0.015l-0.157,-0.015l-0.157,-0.013l-0.157,-0.013l-0.157,-0.011l-0.158,-0.011l-0.158,-0.009l-0.158,-0.009l-0.158,-0.007l-0.159,-0.007l-0.159,-0.005l-0.159,-0.005l-0.159,-0.003l-0.16,-0.003l-0.16,-0.001l-0.16,-0.001l-270.436,0Z" style="fill:#445;"/><text x="123.533px" y="59.029px" style="font-family:'ArialMT', 'Arial', sans-serif;font-size:24px;">address bar</text><g transform="matrix(1.10134,0,0,1.10134,-241.414,-108.616)"><text x="272.22px" y="357.397px" style="font-family:'ArialMT', 'Arial', sans-serif;font-size:21.792px;">expected</text><text x="283.126px" y="385.528px" style="font-family:'ArialMT', 'Arial', sans-serif;font-size:21.792px;">100VH</text></g><g transform="matrix(1.10134,0,0,1.10134,-160.946,210.595)"><text x="243.161px" y="357.397px" style="font-family:'ArialMT', 'Arial', sans-serif;font-size:21.792px;">overﬂow by the</text><text x="228.972px" y="385.528px" style="font-family:'ArialMT', 'Arial', sans-serif;font-size:21.792px;">address bar&apos;s size</text></g><g transform="matrix(1.10134,0,0,1.10134,-81.4136,-108.616)"><text x="287.366px" y="357.397px" style="font-family:'ArialMT', 'Arial', sans-serif;font-size:21.792px;fill:#fff;">actual</text><text x="283.126px" y="385.528px" style="font-family:'ArialMT', 'Arial', sans-serif;font-size:21.792px;fill:#fff;">100VH</text></g></svg>